<svg width="462" height="64" viewBox="0 0 462 64" fill="none" xmlns="http://www.w3.org/2000/svg">
<path d="M20.8047 9.57812C23.6172 9.57812 26.2188 10.3047 28.6094 11.7578C31.0469 13.1641 32.9922 15.25 34.4453 18.0156C35.9453 20.7344 36.6953 24.0625 36.6953 28C36.6953 31.9375 35.9453 35.3359 34.4453 38.1953C32.9922 41.0547 31 43.2578 28.4688 44.8047C25.9844 46.3047 23.2188 47.0547 20.1719 47.0547C18.2031 47.0547 16.2344 46.5859 14.2656 45.6484C12.3438 44.6641 10.7266 43.4453 9.41406 41.9922V62.875H0.484375V10.4922H9.41406V16.4688C10.4453 14.5469 11.9453 12.9297 13.9141 11.6172C15.8828 10.2578 18.1797 9.57812 20.8047 9.57812ZM18.5547 18.5078C16.9609 18.5078 15.4609 18.9297 14.0547 19.7734C12.6484 20.5703 11.5 21.7188 10.6094 23.2188C9.76562 24.7188 9.36719 26.5234 9.41406 28.6328V33.7656C10.6797 35.0781 12.0391 36.1797 13.4922 37.0703C14.9922 37.9141 16.6094 38.3359 18.3438 38.3359C20.1719 38.3359 21.7656 37.8438 23.125 36.8594C24.4844 35.875 25.5391 34.6094 26.2891 33.0625C27.0391 31.4688 27.4141 29.7812 27.4141 28C27.4141 25.3281 26.5938 23.0781 24.9531 21.25C23.3594 19.4219 21.2266 18.5078 18.5547 18.5078ZM54.9456 9.57812C56.8675 9.57812 58.8128 10.0234 60.7816 10.9141C62.7503 11.8047 64.3909 13 65.7034 14.5V10.4922H74.6331V46H65.7034V40.0234C64.6722 41.9453 63.1722 43.6094 61.2034 45.0156C59.2347 46.375 56.9378 47.0547 54.3128 47.0547C51.4534 47.0547 48.805 46.3281 46.3675 44.875C43.9769 43.4219 42.055 41.3125 40.6019 38.5469C39.1488 35.7812 38.4222 32.4297 38.4222 28.4922C38.4222 24.5547 39.1488 21.1797 40.6019 18.3672C42.1019 15.5547 44.0941 13.3984 46.5784 11.8984C49.1097 10.3516 51.8988 9.57812 54.9456 9.57812ZM56.7738 18.2969C54.8988 18.2969 53.2816 18.7891 51.9222 19.7734C50.6097 20.7109 49.5784 21.9531 48.8284 23.5C48.0784 25.0469 47.7034 26.7109 47.7034 28.4922C47.7034 31.1641 48.5003 33.4375 50.0941 35.3125C51.7347 37.1875 53.8909 38.125 56.5628 38.125C58.1566 38.125 59.6331 37.7031 60.9925 36.8594C62.3988 36.0156 63.5238 34.8438 64.3675 33.3438C65.2581 31.7969 65.7034 29.9453 65.7034 27.7891V22.7266C64.4378 21.3672 63.055 20.2891 61.555 19.4922C60.1019 18.6953 58.5081 18.2969 56.7738 18.2969ZM86.9069 10.4922L97.0319 33.1328L106.876 10.4922H117.071L91.2663 62.875H81.1413L91.8288 43.3984L76.5006 10.4922H86.9069ZM127.868 10.4922V14.9922C128.946 13.6328 130.235 12.3906 131.735 11.2656C133.282 10.1406 135.251 9.57812 137.642 9.57812C140.126 9.57812 142.376 10.1641 144.392 11.3359C146.407 12.4609 147.978 14.1719 149.103 16.4688C150.509 14.5469 152.149 12.9297 154.024 11.6172C155.899 10.2578 158.079 9.57812 160.563 9.57812C162.954 9.57812 165.134 10.1406 167.103 11.2656C169.071 12.3438 170.642 13.9609 171.813 16.1172C173.032 18.2734 173.642 20.9688 173.642 24.2031V46H164.712L164.642 25.3984C164.642 23.0078 164.009 21.2266 162.743 20.0547C161.524 18.8828 159.907 18.2969 157.892 18.2969C156.345 18.2969 155.009 18.7891 153.884 19.7734C152.759 20.7109 151.704 21.8359 150.72 23.1484V46H141.79L141.72 25.3984C141.72 23.0078 141.087 21.2266 139.821 20.0547C138.603 18.8828 137.009 18.2969 135.04 18.2969C133.54 18.2969 132.204 18.7656 131.032 19.7031C129.86 20.5938 128.806 21.6484 127.868 22.8672V46H118.938V10.4922H127.868ZM195.056 9.57812C198.525 9.57812 201.501 10.3281 203.986 11.8281C206.517 13.3281 208.439 15.4141 209.751 18.0859C211.111 20.7109 211.79 23.7578 211.79 27.2266V31.0234H186.056C186.525 33.4141 187.697 35.3359 189.572 36.7891C191.447 38.2422 193.743 38.9688 196.462 38.9688C199.04 38.9688 201.384 38.4531 203.493 37.4219C205.603 36.3906 207.29 35.3359 208.556 34.2578L208.486 42.5547C207.361 43.5391 205.673 44.5469 203.423 45.5781C201.22 46.5625 198.783 47.0547 196.111 47.0547C192.595 47.0547 189.384 46.2578 186.478 44.6641C183.618 43.0703 181.322 40.8906 179.587 38.125C177.9 35.3594 177.056 32.1953 177.056 28.6328C177.056 25.1641 177.829 22 179.376 19.1406C180.923 16.2812 183.056 13.9844 185.775 12.25C188.493 10.4688 191.587 9.57812 195.056 9.57812ZM194.845 17.3828C192.642 17.3828 190.79 18.0625 189.29 19.4219C187.79 20.7812 186.759 22.6094 186.197 24.9062H203.212C203.025 22.375 202.087 20.5 200.4 19.2812C198.712 18.0156 196.861 17.3828 194.845 17.3828ZM224.556 10.4922V15.5547C225.634 14.1016 227.087 12.7422 228.916 11.4766C230.791 10.2109 232.923 9.57812 235.314 9.57812C238.923 9.57812 241.947 10.7969 244.384 13.2344C246.822 15.6719 248.041 19.3281 248.041 24.2031V46H239.111L239.041 25.3984C239.041 23.0078 238.455 21.2266 237.283 20.0547C236.158 18.8828 234.587 18.2969 232.572 18.2969C230.978 18.2969 229.478 18.8125 228.072 19.8438C226.712 20.875 225.541 22.0938 224.556 23.5V46H215.627V10.4922H224.556ZM265.799 0.15625V10.4922H275.643V17.9453H265.799V33.2734C265.799 34.8672 266.15 36.1328 266.853 37.0703C267.603 37.9609 268.705 38.4062 270.158 38.4062C271.424 38.4062 272.502 38.2656 273.393 37.9844C274.33 37.7031 275.197 37.3047 275.994 36.7891V43.8906C275.103 44.7812 273.978 45.5312 272.619 46.1406C271.307 46.75 269.643 47.0547 267.627 47.0547C264.439 47.0547 261.838 46.0469 259.822 44.0312C257.853 41.9688 256.869 39.1562 256.869 35.5938V17.9453H250.471V13.375C252.721 12.5781 254.783 11.0781 256.658 8.875C258.58 6.67187 260.103 3.76563 261.228 0.15625H265.799ZM292.276 9.57812C294.479 9.57812 296.518 9.90625 298.393 10.5625C300.268 11.2188 301.721 11.9688 302.752 12.8125V20.6875C301.627 19.9375 300.244 19.2109 298.604 18.5078C297.01 17.8047 295.346 17.4531 293.612 17.4531C291.924 17.4531 290.588 17.8281 289.604 18.5781C288.619 19.3281 288.127 20.2188 288.127 21.25C288.127 22 288.408 22.7031 288.971 23.3594C289.533 23.9688 290.612 24.5078 292.205 24.9766L296.213 26.3125C301.604 27.9062 304.299 31.0234 304.299 35.6641C304.299 37.8672 303.666 39.8359 302.401 41.5703C301.182 43.2578 299.518 44.5938 297.408 45.5781C295.346 46.5625 293.049 47.0547 290.518 47.0547C288.127 47.0547 285.807 46.6797 283.557 45.9297C281.307 45.1797 279.596 44.3594 278.424 43.4688V35.6641C279.315 36.2734 280.393 36.8594 281.658 37.4219C282.924 37.9844 284.237 38.4531 285.596 38.8281C286.955 39.1562 288.198 39.3203 289.323 39.3203C291.104 39.3203 292.463 39.0156 293.401 38.4062C294.385 37.75 294.877 36.8359 294.877 35.6641C294.877 34.7734 294.479 34.0703 293.682 33.5547C292.885 33.0391 291.713 32.5234 290.166 32.0078L285.807 30.4609C283.088 29.5703 281.213 28.3047 280.182 26.6641C279.151 25.0234 278.635 23.0781 278.635 20.8281C278.635 18.5781 279.198 16.6328 280.323 14.9922C281.494 13.3047 283.112 11.9922 285.174 11.0547C287.237 10.0703 289.604 9.57812 292.276 9.57812ZM327.893 9.57812C330.706 9.57812 333.307 10.3047 335.698 11.7578C338.135 13.1641 340.081 15.25 341.534 18.0156C343.034 20.7344 343.784 24.0625 343.784 28C343.784 31.9375 343.034 35.3359 341.534 38.1953C340.081 41.0547 338.088 43.2578 335.557 44.8047C333.073 46.3047 330.307 47.0547 327.26 47.0547C325.292 47.0547 323.323 46.5859 321.354 45.6484C319.432 44.6641 317.815 43.4453 316.503 41.9922V62.875H307.573V10.4922H316.503V16.4688C317.534 14.5469 319.034 12.9297 321.003 11.6172C322.971 10.2578 325.268 9.57812 327.893 9.57812ZM325.643 18.5078C324.049 18.5078 322.549 18.9297 321.143 19.7734C319.737 20.5703 318.588 21.7188 317.698 23.2188C316.854 24.7188 316.456 26.5234 316.503 28.6328V33.7656C317.768 35.0781 319.128 36.1797 320.581 37.0703C322.081 37.9141 323.698 38.3359 325.432 38.3359C327.26 38.3359 328.854 37.8438 330.213 36.8594C331.573 35.875 332.628 34.6094 333.378 33.0625C334.128 31.4688 334.503 29.7812 334.503 28C334.503 25.3281 333.682 23.0781 332.042 21.25C330.448 19.4219 328.315 18.5078 325.643 18.5078ZM362.034 9.57812C363.956 9.57812 365.901 10.0234 367.87 10.9141C369.839 11.8047 371.479 13 372.792 14.5V10.4922H381.722V46H372.792V40.0234C371.761 41.9453 370.261 43.6094 368.292 45.0156C366.323 46.375 364.026 47.0547 361.401 47.0547C358.542 47.0547 355.893 46.3281 353.456 44.875C351.065 43.4219 349.143 41.3125 347.69 38.5469C346.237 35.7812 345.511 32.4297 345.511 28.4922C345.511 24.5547 346.237 21.1797 347.69 18.3672C349.19 15.5547 351.182 13.3984 353.667 11.8984C356.198 10.3516 358.987 9.57812 362.034 9.57812ZM363.862 18.2969C361.987 18.2969 360.37 18.7891 359.011 19.7734C357.698 20.7109 356.667 21.9531 355.917 23.5C355.167 25.0469 354.792 26.7109 354.792 28.4922C354.792 31.1641 355.589 33.4375 357.182 35.3125C358.823 37.1875 360.979 38.125 363.651 38.125C365.245 38.125 366.722 37.7031 368.081 36.8594C369.487 36.0156 370.612 34.8438 371.456 33.3438C372.347 31.7969 372.792 29.9453 372.792 27.7891V22.7266C371.526 21.3672 370.143 20.2891 368.643 19.4922C367.19 18.6953 365.597 18.2969 363.862 18.2969ZM402.433 9.57812C404.355 9.57812 406.3 10.0234 408.269 10.9141C410.237 11.8047 411.878 13 413.191 14.5V10.4922H422.12V45.0859C422.12 49.1172 421.23 52.5156 419.448 55.2812C417.667 58.0938 415.3 60.2266 412.347 61.6797C409.394 63.1797 406.159 63.9297 402.644 63.9297C399.503 63.9297 396.925 63.4609 394.909 62.5234C392.894 61.5859 391.019 60.5078 389.284 59.2891V50.8516C390.362 51.5078 391.487 52.2109 392.659 52.9609C393.878 53.7109 395.237 54.3438 396.737 54.8594C398.284 55.375 400.066 55.6328 402.081 55.6328C404.191 55.6328 406.089 55.2344 407.777 54.4375C409.464 53.6406 410.777 52.5156 411.714 51.0625C412.698 49.6562 413.191 48.0391 413.191 46.2109V40.0234C412.159 41.9453 410.659 43.6094 408.691 45.0156C406.722 46.375 404.425 47.0547 401.8 47.0547C398.941 47.0547 396.292 46.3281 393.855 44.875C391.464 43.4219 389.542 41.3125 388.089 38.5469C386.636 35.7812 385.909 32.4297 385.909 28.4922C385.909 24.5547 386.636 21.1797 388.089 18.3672C389.589 15.5547 391.581 13.3984 394.066 11.8984C396.597 10.3516 399.386 9.57812 402.433 9.57812ZM404.261 18.3672C402.386 18.3672 400.769 18.8594 399.409 19.8438C398.097 20.7812 397.066 22.0234 396.316 23.5703C395.566 25.0703 395.191 26.7109 395.191 28.4922C395.191 31.1641 395.987 33.4375 397.581 35.3125C399.222 37.1406 401.378 38.0547 404.05 38.0547C405.644 38.0547 407.12 37.6562 408.48 36.8594C409.886 36.0156 411.011 34.8438 411.855 33.3438C412.745 31.7969 413.191 29.9453 413.191 27.7891V22.7266C411.925 21.3672 410.542 20.3125 409.042 19.5625C407.589 18.7656 405.995 18.3672 404.261 18.3672ZM444.308 9.57812C447.777 9.57812 450.753 10.3281 453.238 11.8281C455.769 13.3281 457.691 15.4141 459.003 18.0859C460.363 20.7109 461.043 23.7578 461.043 27.2266V31.0234H435.308C435.777 33.4141 436.949 35.3359 438.824 36.7891C440.699 38.2422 442.996 38.9688 445.714 38.9688C448.293 38.9688 450.636 38.4531 452.746 37.4219C454.855 36.3906 456.543 35.3359 457.808 34.2578L457.738 42.5547C456.613 43.5391 454.925 44.5469 452.675 45.5781C450.472 46.5625 448.035 47.0547 445.363 47.0547C441.847 47.0547 438.636 46.2578 435.73 44.6641C432.871 43.0703 430.574 40.8906 428.839 38.125C427.152 35.3594 426.308 32.1953 426.308 28.6328C426.308 25.1641 427.082 22 428.628 19.1406C430.175 16.2812 432.308 13.9844 435.027 12.25C437.746 10.4688 440.839 9.57812 444.308 9.57812ZM444.097 17.3828C441.894 17.3828 440.043 18.0625 438.543 19.4219C437.043 20.7812 436.011 22.6094 435.449 24.9062H452.464C452.277 22.375 451.339 20.5 449.652 19.2812C447.964 18.0156 446.113 17.3828 444.097 17.3828Z" fill="white"/>
</svg>
